<svg id="圖層_1" data-name="圖層 1" xmlns="http://www.w3.org/2000/svg" viewBox="0 0 168.29 149.47"><defs><style>.cls-1,.cls-4{fill:#fc642b;}.cls-1,.cls-2,.cls-3{stroke:#fff;stroke-miterlimit:10;stroke-width:4px;}.cls-2,.cls-5{fill:#475a61;}.cls-3,.cls-6{fill:#fed29a;}</style></defs><title>未命名-1</title><path class="cls-1" d="M43.18,141.35c0-3.51,2.3-6.36,5.15-6.36H150.79L172.57,31.75c.59-2.8,2.64-4.75,5-4.75H196.8c2.85,0,5.15,2.85,5.15,6.36s-2.31,6.36-5.15,6.36H181.53L159.75,143c-.59,2.8-2.64,4.76-5,4.76H48.33C45.49,147.71,43.18,144.86,43.18,141.35Z" transform="translate(-38.42 -25)"/><ellipse class="cls-2" cx="99.77" cy="133.39" rx="8.64" ry="10.68"/><ellipse class="cls-2" cx="18.54" cy="133.39" rx="8.64" ry="10.68"/><path class="cls-3" d="M45.38,44.87l10.51,77.48,97.59-.12L169.8,44.87Zm89.31,15.27c2.19.37,3.73,2.86,3.43,5.57l-4,36.25c-.3,2.71-2.32,4.6-4.52,4.23s-3.73-2.86-3.43-5.57l4.05-36.25c.27-2.45,2-4.28,4-4.28A3.41,3.41,0,0,1,134.69,60.14Zm-34.92,5h0c0-2.76,1.81-5,4-5s4,2.24,4,5v36.15h0c0,2.76-1.81,5-4,5s-4-2.24-4-5Zm-30.07.62c-.3-2.71,1.24-5.21,3.43-5.58s4.21,1.53,4.51,4.24l4,36.25h0c.29,2.71-1.24,5.2-3.43,5.57S74,104.67,73.74,102l-4-36.25Z" transform="translate(-38.42 -25)"/><path class="cls-2" d="M40.42,169.07c0-1.88,1.23-3.4,2.75-3.4H202c1.52,0,2.76,1.52,2.76,3.4s-1.24,3.4-2.76,3.4H43.17C41.65,172.47,40.42,171,40.42,169.07Z" transform="translate(-38.42 -25)"/><path class="cls-4" d="M43.18,141.35c0-3.51,2.3-6.36,5.15-6.36H150.79L172.57,31.75c.59-2.8,2.64-4.75,5-4.75H196.8c2.85,0,5.15,2.85,5.15,6.36s-2.31,6.36-5.15,6.36H181.53L159.75,143c-.59,2.8-2.64,4.76-5,4.76H48.33C45.49,147.71,43.18,144.86,43.18,141.35Z" transform="translate(-38.42 -25)"/><ellipse class="cls-5" cx="99.77" cy="133.39" rx="8.64" ry="10.68"/><ellipse class="cls-5" cx="18.54" cy="133.39" rx="8.64" ry="10.68"/><path class="cls-6" d="M45.38,44.87l10.51,77.48,97.59-.12L169.8,44.87Zm89.31,15.27c2.19.37,3.73,2.86,3.43,5.57l-4,36.25c-.3,2.71-2.32,4.6-4.52,4.23s-3.73-2.86-3.43-5.57l4.05-36.25c.27-2.45,2-4.28,4-4.28A3.41,3.41,0,0,1,134.69,60.14Zm-34.92,5h0c0-2.76,1.81-5,4-5s4,2.24,4,5v36.15h0c0,2.76-1.81,5-4,5s-4-2.24-4-5Zm-30.07.62c-.3-2.71,1.24-5.21,3.43-5.58s4.21,1.53,4.51,4.24l4,36.25h0c.29,2.71-1.24,5.2-3.43,5.57S74,104.67,73.74,102l-4-36.25Z" transform="translate(-38.42 -25)"/><path class="cls-5" d="M40.42,169.07c0-1.88,1.23-3.4,2.75-3.4H202c1.52,0,2.76,1.52,2.76,3.4s-1.24,3.4-2.76,3.4H43.17C41.65,172.47,40.42,171,40.42,169.07Z" transform="translate(-38.42 -25)"/></svg>