<svg id="圖層_1" data-name="圖層 1" xmlns="http://www.w3.org/2000/svg" viewBox="0 0 228.51 200.84"><defs><style>.cls-1,.cls-4{fill:#0a090a;}.cls-1,.cls-2,.cls-3{stroke:#fff;stroke-miterlimit:10;stroke-width:5px;}.cls-2,.cls-5{fill:#6cc5e2;}.cls-10,.cls-3{fill:#fefefe;}.cls-6{fill:#fbfbfb;}.cls-7{fill:#228dbd;}.cls-8{fill:#f9f9f9;}.cls-9{fill:#fcef03;}</style></defs><title>未命名-1</title><path class="cls-1" d="M207.32,78.07s0,.07-.06.1l.09.08Z" transform="translate(-5 -1.66)"/><path class="cls-1" d="M224.12,118.89c-5.51-1.79-9.19-5.21-9.81-11.42-.49-4.85-1.42-9.65-2.15-14.47a1.09,1.09,0,0,1,0-.18c0-.44.07-.89.1-1.33l.93.41.1.06,4.4,2.78a.81.81,0,0,0,1.24-.75c-.3-3.66-.48-6.9-1-10.08-.47-2.83.63-4.35,2.92-5.73,2.62-1.59,5.47-2.87,8-5a.82.82,0,0,0-.28-1.4c-2.3-.72-4.43-1.36-6.52-2.08-4.94-1.7-8.87-2.9-10.24-10C208.61,43.3,184,29.46,167.69,33.54c-4,1-7.84,2.71-9.4,6.83-1,2.62-2.26,2.64-4.66,2.43-28.55-2.55-51.92,6.5-68.22,31-1.19,1.78-2.29,2.81-4.61,2.48a245.55,245.55,0,0,0-28.55-2.13c-11.5-.27-23-.34-34,3.87-6.07,2.32-9.81,6.35-10.2,13.27a113.13,113.13,0,0,0-.51,12.06c1.29,25.74,11.2,46.54,34.87,58.9,15.73,8.21,32.9,10.09,50.35,9.83a9.87,9.87,0,0,1,7,2.17,64.18,64.18,0,0,0,29.88,13.27c2.78.48,6.09,0,8.27,1.35,2.61,1.63.61,5.25,1.17,7.93,0,.14,0,.3,0,.44a2.92,2.92,0,0,0,3,2.79,3.12,3.12,0,0,0,3.31-2.47,8.7,8.7,0,0,0,.2-3.55c-.69-3.94.86-5.39,4.66-4.74a10.2,10.2,0,0,0,3.12,0c2.63-.38,3.12,1,3.06,3.5-.06,2.89-1.28,7.31,3.55,7.12,4.53-.18,2.86-4.53,2.87-7.17,0-3,.74-4,3.89-4.37,18.83-2.39,35.87-8.84,48.77-23.51,9.11-10.36,14.54-22.46,15.49-36.33C231.36,122.36,229.88,120.77,224.12,118.89ZM213.92,75c-1.87,1.75-3.65,3.37-2.86,6a.81.81,0,0,1-1,1,3.77,3.77,0,0,1-2.11-2.07,9.7,9.7,0,0,0-1.25-2c-1.63-1.38-2-3.48-3.28-5.41a.81.81,0,0,1,.74-1.25c2.27.21,4.07,1.32,6,1.61a1,1,0,0,0,.34,0c1.15-.29,2,.33,3.17.79A.81.81,0,0,1,213.92,75ZM165.58,41.44c2.62-2.25,5.81-1.91,8.63-1.9C186,39,201.83,49.73,205.66,60.32c.48,1.33,2.15,3.47-.3,3.92-1.61.29-4.29-.16-5-2.73C196.87,49,186.91,44.65,175.67,42.09a9.68,9.68,0,0,0-8.41,2.08c-1,.87-2.5,1.32-3.18.39C163.09,43.21,164.62,42.27,165.58,41.44Zm11.19,7.77c-.34-.19-.29-.4.16-.46a1.45,1.45,0,0,1,.9.06c.66.24,10.44,3.42,13,7.35.6,1,.75,1.24,1.08,1.82.23.39-.17,1-.57.7s-.75-.74-1.25-1.14C189.33,56.91,176.9,49.28,176.77,49.21ZM48.92,157.9c-20.8-9-31.31-25.74-34.12-47.75a95.88,95.88,0,0,1-.37-17c.26-5.38,3-8.1,7.66-9.64,9.67-3.18,19.67-3,29.66-3,3.28,0,6.55.3,9.82.46,5.08.21,10.18.23,15.16,1.45l.12,0A281.06,281.06,0,0,1,117,88.32c6.5,1.38,13.28,1.85,19.53,4.91,8.67,4.23,13.28,10.44,13.39,20.27.29,25.83-14.37,44.6-39.76,49.83C89.28,167.63,68.64,166.43,48.92,157.9Zm175.41-27.81c-2.15,16.58-10,29.87-23.75,39.34-16.61,11.43-35.52,14-55.09,13.1-11.37-.51-22.58-2-32.77-7.7A21.71,21.71,0,0,1,108.1,172a.81.81,0,0,1,.39-1.39c9.42-1.91,18.1-5,25.91-10.34,19-13.14,24.65-38.17,21-55.48-1.73-8.22-7.61-13.2-14.8-16.84-8.1-4.1-17-5.24-25.73-6.84-6.49-1.19-13-2.25-19.58-3-3.66-.4-4.24-1.26-1.87-4.32C108,55,127.5,46.91,150.75,49.19c33.21,3.25,53.42,24.11,56.78,57.4.95,9.33,5.28,15.74,14.33,18.38C225.12,125.92,224.59,128,224.33,130.09Z" transform="translate(-5 -1.66)"/><path class="cls-2" d="M79.3,39.78c-.17,2.71.08,4.78-2.14,5.4-1.73.48-3.49,1.77-5.45.31s-1.5-3.39-1.33-5.29a2.29,2.29,0,0,1,2.26-2.3c3.68-.37,3.07-2.61,2.45-5.16-.85-3.46-3-2.07-4.84-1.47C61.83,34,61.82,34,63.36,42.76c.44,2.51,1.31,5.05-2.27,6.13-2.46.75-5,1.14-6.22-1.53-1.08-2.32-.6-4.6,2.15-5.93,3.53-1.71,2.81-4.6,2.07-7.64-1.5-6.1-1.88-6.22,4.53-6.85a33.87,33.87,0,0,0,8.65-2.05c2.42-.93,3.24-.61,3.77,2C77,31.52,78.34,36.07,79.3,39.78ZM73.69,28.69l-.43-1.34-12.33,3,.28,1.13A36.88,36.88,0,0,0,73.69,28.69Z" transform="translate(-5 -1.66)"/><path class="cls-2" d="M52,17.76c-1,.6-1.12,1.68-1.6,2.59-1.54,2.88-4.06,3.33-6.82,2.17-2.38-1-3.6-3.18-2.26-5.4,1.22-2,2.84-4.7,6.24-2.72,1.59.93,2.82.35,3.35-1.54a9.9,9.9,0,0,1,.92-2c1.13-2.11,1.11-5,3.92-6A64.61,64.61,0,0,1,58.49,13c.6,2.86-1.79,4.46-3.67,6.06-.31.26-1.34-.34-2-.54,1.91-.95,3.36-2.25,3.3-4.59,0-.63-.51-1.27-1.11-1.07C52.68,13.67,52.23,15.68,52,17.76Z" transform="translate(-5 -1.66)"/><path class="cls-2" d="M66,63.48C56.35,68.07,51.48,66.89,46.07,58,42.73,52.51,40,46.59,33.26,43.59c6.3-1.52,9.09,2.57,11.9,6.3,1.68,2.24,2.65,5,4.34,7.24,2.89,3.81,6.42,6.62,11.73,6.09C62.73,63.07,64.39,62.64,66,63.48Z" transform="translate(-5 -1.66)"/><path class="cls-3" d="M212.15,92.91c0-.47.06-1,.1-1.42l1,.44Z" transform="translate(-5 -1.66)"/><path class="cls-4" d="M207.32,78.07s0,.07-.06.1l.09.08Z" transform="translate(-5 -1.66)"/><path class="cls-4" d="M224.12,118.89c-5.51-1.79-9.19-5.21-9.81-11.42-.49-4.85-1.42-9.65-2.15-14.47a1.09,1.09,0,0,1,0-.18c0-.44.07-.89.1-1.33l.93.41.1.06,4.4,2.78a.81.81,0,0,0,1.24-.75c-.3-3.66-.48-6.9-1-10.08-.47-2.83.63-4.35,2.92-5.73,2.62-1.59,5.47-2.87,8-5a.82.82,0,0,0-.28-1.4c-2.3-.72-4.43-1.36-6.52-2.08-4.94-1.7-8.87-2.9-10.24-10C208.61,43.3,184,29.46,167.69,33.54c-4,1-7.84,2.71-9.4,6.83-1,2.62-2.26,2.64-4.66,2.43-28.55-2.55-51.92,6.5-68.22,31-1.19,1.78-2.29,2.81-4.61,2.48a245.55,245.55,0,0,0-28.55-2.13c-11.5-.27-23-.34-34,3.87-6.07,2.32-9.81,6.35-10.2,13.27a113.13,113.13,0,0,0-.51,12.06c1.29,25.74,11.2,46.54,34.87,58.9,15.73,8.21,32.9,10.09,50.35,9.83a9.87,9.87,0,0,1,7,2.17,64.18,64.18,0,0,0,29.88,13.27c2.78.48,6.09,0,8.27,1.35,2.61,1.63.61,5.25,1.17,7.93,0,.14,0,.3,0,.44a2.92,2.92,0,0,0,3,2.79,3.12,3.12,0,0,0,3.31-2.47,8.7,8.7,0,0,0,.2-3.55c-.69-3.94.86-5.39,4.66-4.74a10.2,10.2,0,0,0,3.12,0c2.63-.38,3.12,1,3.06,3.5-.06,2.89-1.28,7.31,3.55,7.12,4.53-.18,2.86-4.53,2.87-7.17,0-3,.74-4,3.89-4.37,18.83-2.39,35.87-8.84,48.77-23.51,9.11-10.36,14.54-22.46,15.49-36.33C231.36,122.36,229.88,120.77,224.12,118.89ZM213.92,75c-1.87,1.75-3.65,3.37-2.86,6a.81.81,0,0,1-1,1,3.77,3.77,0,0,1-2.11-2.07,9.7,9.7,0,0,0-1.25-2c-1.63-1.38-2-3.48-3.28-5.41a.81.81,0,0,1,.74-1.25c2.27.21,4.07,1.32,6,1.61a1,1,0,0,0,.34,0c1.15-.29,2,.33,3.17.79A.81.81,0,0,1,213.92,75ZM165.58,41.44c2.62-2.25,5.81-1.91,8.63-1.9C186,39,201.83,49.73,205.66,60.32c.48,1.33,2.15,3.47-.3,3.92-1.61.29-4.29-.16-5-2.73C196.87,49,186.91,44.65,175.67,42.09a9.68,9.68,0,0,0-8.41,2.08c-1,.87-2.5,1.32-3.18.39C163.09,43.21,164.62,42.27,165.58,41.44Zm11.19,7.77c-.34-.19-.29-.4.16-.46a1.45,1.45,0,0,1,.9.06c.66.24,10.44,3.42,13,7.35.6,1,.75,1.24,1.08,1.82.23.39-.17,1-.57.7s-.75-.74-1.25-1.14C189.33,56.91,176.9,49.28,176.77,49.21ZM48.92,157.9c-20.8-9-31.31-25.74-34.12-47.75a95.88,95.88,0,0,1-.37-17c.26-5.38,3-8.1,7.66-9.64,9.67-3.18,19.67-3,29.66-3,3.28,0,6.55.3,9.82.46,5.08.21,10.18.23,15.16,1.45l.12,0A281.06,281.06,0,0,1,117,88.32c6.5,1.38,13.28,1.85,19.53,4.91,8.67,4.23,13.28,10.44,13.39,20.27.29,25.83-14.37,44.6-39.76,49.83C89.28,167.63,68.64,166.43,48.92,157.9Zm175.41-27.81c-2.15,16.58-10,29.87-23.75,39.34-16.61,11.43-35.52,14-55.09,13.1-11.37-.51-22.58-2-32.77-7.7A21.71,21.71,0,0,1,108.1,172a.81.81,0,0,1,.39-1.39c9.42-1.91,18.1-5,25.91-10.34,19-13.14,24.65-38.17,21-55.48-1.73-8.22-7.61-13.2-14.8-16.84-8.1-4.1-17-5.24-25.73-6.84-6.49-1.19-13-2.25-19.58-3-3.66-.4-4.24-1.26-1.87-4.32C108,55,127.5,46.91,150.75,49.19c33.21,3.25,53.42,24.11,56.78,57.4.95,9.33,5.28,15.74,14.33,18.38C225.12,125.92,224.59,128,224.33,130.09Z" transform="translate(-5 -1.66)"/><path class="cls-5" d="M79.3,39.78c-.17,2.71.08,4.78-2.14,5.4-1.73.48-3.49,1.77-5.45.31s-1.5-3.39-1.33-5.29a2.29,2.29,0,0,1,2.26-2.3c3.68-.37,3.07-2.61,2.45-5.16-.85-3.46-3-2.07-4.84-1.47C61.83,34,61.82,34,63.36,42.76c.44,2.51,1.31,5.05-2.27,6.13-2.46.75-5,1.14-6.22-1.53-1.08-2.32-.6-4.6,2.15-5.93,3.53-1.71,2.81-4.6,2.07-7.64-1.5-6.1-1.88-6.22,4.53-6.85a33.87,33.87,0,0,0,8.65-2.05c2.42-.93,3.24-.61,3.77,2C77,31.52,78.34,36.07,79.3,39.78ZM73.69,28.69l-.43-1.34-12.33,3,.28,1.13A36.88,36.88,0,0,0,73.69,28.69Z" transform="translate(-5 -1.66)"/><path class="cls-5" d="M52,17.76c-1,.6-1.12,1.68-1.6,2.59-1.54,2.88-4.06,3.33-6.82,2.17-2.38-1-3.6-3.18-2.26-5.4,1.22-2,2.84-4.7,6.24-2.72,1.59.93,2.82.35,3.35-1.54a9.9,9.9,0,0,1,.92-2c1.13-2.11,1.11-5,3.92-6A64.61,64.61,0,0,1,58.49,13c.6,2.86-1.79,4.46-3.67,6.06-.31.26-1.34-.34-2-.54,1.91-.95,3.36-2.25,3.3-4.59,0-.63-.51-1.27-1.11-1.07C52.68,13.67,52.23,15.68,52,17.76Z" transform="translate(-5 -1.66)"/><path class="cls-5" d="M66,63.48C56.35,68.07,51.48,66.89,46.07,58,42.73,52.51,40,46.59,33.26,43.59c6.3-1.52,9.09,2.57,11.9,6.3,1.68,2.24,2.65,5,4.34,7.24,2.89,3.81,6.42,6.62,11.73,6.09C62.73,63.07,64.39,62.64,66,63.48Z" transform="translate(-5 -1.66)"/><path class="cls-6" d="M107.06,170.87c10-1.89,19.14-5,27.34-10.62,19-13.14,24.65-38.17,21-55.48-1.73-8.22-7.61-13.2-14.8-16.84-8.39-4.25-17.62-5.32-26.67-7-6.14-1.15-12.34-2.12-18.56-2.78-3.73-.4-4.34-1.25-2-4.33C108,55,127.5,46.91,150.75,49.19c33.21,3.25,53.42,24.11,56.78,57.4.95,9.33,5.28,15.74,14.33,18.38,3.26,1,2.73,3.05,2.47,5.12-2.15,16.58-10,29.87-23.75,39.34-16.61,11.43-35.52,14-55.09,13.1-11.37-.51-22.58-2-32.77-7.7C110.83,173.78,108.72,173,107.06,170.87Zm84-32c-2.09.17-4.51-.51-5.16,2.29s1.49,3.9,3.58,4.82a13.32,13.32,0,0,0,3.35,1.16c3,.46,6.43,1.4,8.51-1.82s-.33-5.87-2.22-8.33a27.13,27.13,0,0,0-2.51-2.52c-1.7-1.68-3.64-3-5.86-1.19S189.82,137,191.06,138.86Zm-29.62-61.6c-.37-2.63-1.67-4.26-4.35-4.16s-4.49,1.63-4.31,4.5a4,4,0,0,0,4.28,4.1C160,81.7,161.14,79.79,161.44,77.26Zm-39,0c2.59-.59,4.44-1.88,4.24-4.8a4.12,4.12,0,0,0-4.39-4.11c-2.71,0-4.38,1.89-4.23,4.68C118.25,75.62,120,76.91,122.48,77.29Z" transform="translate(-5 -1.66)"/><path class="cls-7" d="M174.21,39.54C186,39,201.83,49.73,205.66,60.32c.48,1.33,2.15,3.47-.3,3.92-1.61.29-4.29-.16-5-2.73C196.87,49,186.91,44.65,175.67,42.09a9.68,9.68,0,0,0-8.41,2.08c-1,.87-2.5,1.32-3.18.39-1-1.35.54-2.29,1.5-3.12C168.2,39.19,171.39,39.53,174.21,39.54Z" transform="translate(-5 -1.66)"/><path class="cls-7" d="M210.31,72.88c1.63-.52,2.71.8,4.62,1.13-2.44,2.46-5.53,4.32-3.28,8.25a3.84,3.84,0,0,1-3.74-2.37c-.2-.61-.4-1.21-.59-1.82l0,.18C206.47,75.43,209.47,74.75,210.31,72.88Z" transform="translate(-5 -1.66)"/><path class="cls-8" d="M210.31,72.88c-.84,1.87-3.84,2.55-3,5.37-2.4-1.63-2.77-4.58-4.91-7C205.62,70.89,207.84,72.57,210.31,72.88Z" transform="translate(-5 -1.66)"/><path class="cls-9" d="M136.55,93.23c-6.25-3.06-13-3.53-19.53-4.91a281.9,281.9,0,0,0-40.23-5.79c-5-1.23-10.12-1.25-15.22-1.46-3.27-.16-6.54-.44-9.82-.46-10-.08-20-.23-29.66,3-4.69,1.54-7.4,4.26-7.66,9.64a95.88,95.88,0,0,0,.37,17c2.81,22,13.32,38.75,34.12,47.75,19.72,8.53,40.36,9.73,61.26,5.43,25.39-5.23,40-24,39.76-49.83C149.83,103.67,145.22,97.46,136.55,93.23Z" transform="translate(-5 -1.66)"/><path class="cls-8" d="M207.32,78.07c.19.61.39,1.21.59,1.82C207.69,79.29,206.61,79,207.32,78.07Z" transform="translate(-5 -1.66)"/><path class="cls-10" d="M212.15,92.91c0-.47.06-1,.1-1.42l1,.44Z" transform="translate(-5 -1.66)"/><path class="cls-10" d="M52,17.76c.27-2.08.72-4.09,3-4.86.6-.2,1.1.44,1.11,1.07.06,2.34-1.39,3.64-3.3,4.59Z" transform="translate(-5 -1.66)"/><path class="cls-4" d="M191.06,138.86c-1.24-1.88-2.45-3.88-.31-5.59s4.16-.49,5.86,1.19a27.13,27.13,0,0,1,2.51,2.52c1.89,2.46,4.38,5,2.22,8.33s-5.46,2.28-8.51,1.82a13.32,13.32,0,0,1-3.35-1.16c-2.09-.92-4.24-1.91-3.58-4.82S189,139,191.06,138.86Z" transform="translate(-5 -1.66)"/><path class="cls-4" d="M161.44,77.26c-.3,2.53-1.45,4.44-4.38,4.44a4,4,0,0,1-4.28-4.1c-.18-2.87,1.55-4.38,4.31-4.5S161.07,74.63,161.44,77.26Z" transform="translate(-5 -1.66)"/><path class="cls-4" d="M122.48,77.29c-2.47-.38-4.23-1.67-4.38-4.23-.15-2.79,1.52-4.65,4.23-4.68a4.12,4.12,0,0,1,4.39,4.11C126.92,75.41,125.07,76.7,122.48,77.29Z" transform="translate(-5 -1.66)"/></svg>